<svg width="262" height="48" viewBox="0 0 262 48" fill="none" xmlns="http://www.w3.org/2000/svg">
<path d="M211.121 47V12.0909H220.348V18.25H220.757C221.485 16.2045 222.697 14.5909 224.394 13.4091C226.091 12.2273 228.121 11.6364 230.485 11.6364C232.879 11.6364 234.917 12.2348 236.598 13.4318C238.28 14.6136 239.401 16.2197 239.962 18.25H240.326C241.038 16.25 242.326 14.6515 244.189 13.4545C246.068 12.2424 248.288 11.6364 250.848 11.6364C254.106 11.6364 256.75 12.6742 258.78 14.75C260.826 16.8106 261.848 19.7348 261.848 23.5227V47H252.189V25.4318C252.189 23.4924 251.674 22.0379 250.644 21.0682C249.614 20.0985 248.326 19.6136 246.78 19.6136C245.023 19.6136 243.651 20.1742 242.667 21.2954C241.682 22.4015 241.189 23.8636 241.189 25.6818V47H231.803V25.2273C231.803 23.5151 231.31 22.1515 230.326 21.1363C229.356 20.1212 228.076 19.6136 226.485 19.6136C225.409 19.6136 224.439 19.8863 223.576 20.4318C222.727 20.9621 222.053 21.7121 221.553 22.6818C221.053 23.6363 220.803 24.7576 220.803 26.0454V47H211.121Z" fill="black"/>
<path d="M186.214 47V12.0909H195.6V18.1818H195.964C196.6 16.0151 197.668 14.3788 199.168 13.2727C200.668 12.1515 202.395 11.5909 204.35 11.5909C204.835 11.5909 205.358 11.6212 205.918 11.6818C206.479 11.7424 206.971 11.8257 207.395 11.9318V20.5227C206.941 20.3863 206.312 20.2651 205.509 20.1591C204.706 20.053 203.971 20 203.305 20C201.88 20 200.608 20.3106 199.486 20.9318C198.38 21.5378 197.502 22.3863 196.85 23.4772C196.214 24.5682 195.895 25.8257 195.895 27.25V47H186.214Z" fill="black"/>
<path d="M164.016 47.6818C160.486 47.6818 157.433 46.9318 154.857 45.4318C152.297 43.9167 150.319 41.8106 148.925 39.1136C147.531 36.4015 146.834 33.2576 146.834 29.6818C146.834 26.0757 147.531 22.9242 148.925 20.2273C150.319 17.5151 152.297 15.4091 154.857 13.9091C157.433 12.3939 160.486 11.6364 164.016 11.6364C167.547 11.6364 170.592 12.3939 173.153 13.9091C175.728 15.4091 177.713 17.5151 179.107 20.2273C180.501 22.9242 181.198 26.0757 181.198 29.6818C181.198 33.2576 180.501 36.4015 179.107 39.1136C177.713 41.8106 175.728 43.9167 173.153 45.4318C170.592 46.9318 167.547 47.6818 164.016 47.6818ZM164.062 40.1818C165.668 40.1818 167.009 39.7273 168.084 38.8182C169.16 37.8939 169.971 36.6364 170.516 35.0454C171.077 33.4545 171.357 31.6439 171.357 29.6136C171.357 27.5833 171.077 25.7727 170.516 24.1818C169.971 22.5909 169.16 21.3333 168.084 20.4091C167.009 19.4848 165.668 19.0227 164.062 19.0227C162.441 19.0227 161.077 19.4848 159.971 20.4091C158.88 21.3333 158.054 22.5909 157.494 24.1818C156.948 25.7727 156.675 27.5833 156.675 29.6136C156.675 31.6439 156.948 33.4545 157.494 35.0454C158.054 36.6364 158.88 37.8939 159.971 38.8182C161.077 39.7273 162.441 40.1818 164.062 40.1818Z" fill="black"/>
<path d="M114.831 47V0.454529H145.649V8.56816H124.671V19.6591H143.603V27.7727H124.671V47H114.831Z" fill="black"/>
<path d="M80.0552 47.6818C76.4643 47.6818 73.3734 46.9545 70.7825 45.5C68.2068 44.0303 66.2219 41.9545 64.828 39.2727C63.434 36.5757 62.7371 33.3864 62.7371 29.7045C62.7371 26.1136 63.434 22.9621 64.828 20.25C66.2219 17.5379 68.184 15.4242 70.7143 13.9091C73.2598 12.3939 76.2446 11.6364 79.6689 11.6364C81.9719 11.6364 84.1159 12.0076 86.1007 12.75C88.1007 13.4773 89.8431 14.5757 91.328 16.0454C92.828 17.5151 93.9946 19.3636 94.828 21.5909C95.6613 23.803 96.078 26.3939 96.078 29.3636V32.0227H66.6007V26.0227H86.9643C86.9643 24.6288 86.6613 23.3939 86.0552 22.3182C85.4492 21.2424 84.6083 20.4015 83.5325 19.7954C82.4719 19.1742 81.2371 18.8636 79.828 18.8636C78.3583 18.8636 77.0552 19.2045 75.9189 19.8863C74.7977 20.553 73.9189 21.4545 73.2825 22.5909C72.6462 23.7121 72.3204 24.9621 72.3052 26.3409V32.0454C72.3052 33.7727 72.6234 35.2651 73.2598 36.5227C73.9113 37.7803 74.828 38.75 76.0098 39.4318C77.1916 40.1136 78.5931 40.4545 80.2143 40.4545C81.2901 40.4545 82.2749 40.303 83.1689 40C84.0628 39.697 84.828 39.2424 85.4643 38.6364C86.1007 38.0303 86.5856 37.2879 86.9189 36.4091L95.8734 37C95.4189 39.1515 94.4871 41.0303 93.078 42.6364C91.684 44.2273 89.881 45.4697 87.6689 46.3636C85.4719 47.2424 82.934 47.6818 80.0552 47.6818Z" fill="#FF4664"/>
<path d="M13.5228 47L0.20459 0.454529H10.9546L18.6591 32.7954H19.0455L27.5455 0.454529H36.75L45.2273 32.8636H45.6364L53.341 0.454529H64.091L50.7728 47H41.1819L32.3182 16.5682H31.9546L23.1137 47H13.5228Z" fill="#FF4664"/>
</svg>
